<svg width="116" height="122" viewBox="0 0 116 122" fill="none" xmlns="http://www.w3.org/2000/svg">
<path d="M236.299 43.0721C234.456 41.9115 232.326 41.2682 230.199 41.4426L115.559 48.3924L145.671 100.547L212.96 96.468L239.033 56.9466C241.249 53.6771 241.234 49.5886 239.358 46.3399C238.598 45.0229 237.573 43.8581 236.248 42.9843L236.299 43.0721Z" fill="#ECE1E1" fill-opacity="0.3"/>
<path d="M36.6963 93.924C38.2117 96.5488 41.1646 98.2464 44.5116 98.0638L84.1592 95.4908L140.606 91.7738L165.61 135.082L69.4418 141.415C66.1369 141.67 63.184 139.973 61.6265 137.275L36.6223 93.9667L36.6963 93.924Z" fill="#ECE1E1" fill-opacity="0.3"/>
<path d="M118.406 -37.8263L90.2029 4.35982L36.5543 84.6087C35.5681 86.1518 35.0151 87.9318 35.1494 89.7045C35.2211 91.0265 35.6313 92.2504 36.2638 93.3459C37.7818 95.9752 40.7396 97.6759 44.092 97.4932L83.803 94.9187L115.292 47.8161L165.928 44.485L118.406 -37.8263Z" fill="#ECE1E1" fill-opacity="0.4"/>
</svg>
