<svg width="60" height="60" viewBox="0 0 60 60" fill="none" xmlns="http://www.w3.org/2000/svg">
<rect width="60" height="60" rx="30" fill="#56AB01"/>
<path d="M46.6342 38.3962V41.8906C46.6429 43.0898 46.2678 44.2603 45.5638 45.2312C44.8597 46.202 43.8637 46.9222 42.7211 47.2866C38.6063 48.5887 34.3159 49.2509 30 49.25C25.7155 49.2494 21.4561 48.5966 17.3681 47.314C16.2087 46.9568 15.1944 46.2373 14.474 45.2612C13.7537 44.2851 13.3652 43.1037 13.3657 41.8905V38.3962C13.3663 37.2148 13.7357 36.0631 14.4225 35.1019C15.1093 34.1407 16.0791 33.4179 17.1965 33.0345C18.6956 32.5117 20.1529 31.876 21.5559 31.1329C22.1248 30.839 22.7609 30.6996 23.4006 30.7285C24.0402 30.7574 24.6611 30.9537 25.2013 31.2976C26.6286 32.2286 28.2959 32.7243 30 32.7243C31.7041 32.7243 33.3714 32.2286 34.7988 31.2976C35.3389 30.9537 35.9598 30.7575 36.5995 30.7285C37.2391 30.6996 37.8752 30.8391 38.4442 31.1329C39.8477 31.8748 41.3049 32.5105 42.8036 33.0346C43.9217 33.4168 44.8922 34.1392 45.5792 35.1007C46.2661 36.0622 46.635 37.2145 46.6342 38.3962Z" fill="#EAEBEC"/>
<path d="M22.1737 19.1326C21.3724 11.57 31.0204 7.93979 35.9521 13.3042C36.6563 14.0896 37.1871 15.0145 37.51 16.0187C37.8329 17.023 37.9407 18.0839 37.8263 19.1326L37.4624 22.4347C37.0574 26.1419 33.9612 30.1168 30 30.1168C26.0388 30.1168 22.9426 26.1419 22.5376 22.4347L22.1737 19.1326Z" fill="#EAEBEC"/>
</svg>
