<svg width="85" height="48" viewBox="0 0 85 48" fill="none" xmlns="http://www.w3.org/2000/svg">
<g clip-path="url(#clip0_175_13783)">
<path d="M53.5569 13.9446C53.6882 14.0809 53.8443 14.1985 54.0227 14.2903L54.0227 14.2903L54.025 14.2914L60.2066 17.3896L60.2068 17.3897L68.8741 21.7234V29.9698L54.234 22.6498L54.234 22.6497L54.2314 22.6485C53.8041 22.4409 53.5569 22.0129 53.5569 21.554V13.9446Z" fill="url(#paint0_linear_175_13783)" stroke="#FAFAFA" stroke-width="0.5"/>
<path d="M84.5569 21.0182L84.5633 21.0166C84.6413 21.1801 84.6764 21.357 84.6764 21.5392C84.6764 21.9981 84.4292 22.4261 84.0018 22.6337L84.0018 22.6336L83.999 22.635L77.9293 25.6772L69.374 21.3995V13.1531L84.0141 20.4731L84.014 20.4732L84.0189 20.4755C84.2426 20.5815 84.4288 20.7749 84.5569 21.0182Z" fill="url(#paint1_linear_175_13783)" stroke="#FAFAFA" stroke-width="0.5"/>
<path d="M84.029 31.47L69.3889 38.7901V30.5436L78.0562 26.21L78.0564 26.2099L84.238 23.1117L84.238 23.1117L84.2403 23.1105C84.4187 23.0188 84.5748 22.9012 84.7061 22.7649V30.3743C84.7061 30.8332 84.4589 31.2612 84.0315 31.4688L84.0315 31.4688L84.029 31.47Z" fill="url(#paint2_linear_175_13783)" stroke="#FAFAFA" stroke-width="0.5"/>
<path d="M53.6936 12.2082L53.6937 12.2082L53.6959 12.2034C53.8016 11.9803 53.9942 11.7945 54.2365 11.6665L69.2359 4.16678L76.7605 0.404508V16.3021L69.2359 12.5398L69.1241 12.4839L69.0123 12.5398L60.3188 16.8866L54.2514 13.8456C54.2511 13.8454 54.2507 13.8452 54.2503 13.845C53.8168 13.6216 53.5718 13.1898 53.5718 12.7486C53.5718 12.5598 53.6094 12.3765 53.6936 12.2082Z" fill="url(#paint3_radial_175_13783)" stroke="#FAFAFA" stroke-width="0.5"/>
<path d="M14.2459 42.2483C12.304 42.2483 10.8809 42.1149 10.0211 41.8481C9.19097 41.5664 8.49424 40.8993 7.9161 39.8617C7.63445 39.328 7.41209 38.8388 7.2342 38.3941C7.05631 37.9494 6.9229 37.5195 6.80431 37.1044C6.68572 36.6893 6.6116 36.2891 6.58195 35.8888C6.5523 35.4886 6.52265 35.0587 6.52265 34.5695C6.52265 33.7245 6.59677 32.8944 6.75983 32.0939C6.9229 31.2934 7.24903 30.4633 7.75304 29.5886C8.25706 28.714 9.01308 28.1211 10.0063 27.7949C10.9995 27.4688 12.2595 27.3058 13.816 27.3058H17.1366C17.6406 27.3058 18.115 27.0389 18.3818 26.609L21.4949 21.5689H11.963C9.72463 21.5689 7.76786 21.8802 6.09276 22.5028C4.41765 23.1254 3.12796 24.2075 2.2237 25.7641C1.33426 27.2909 0.741305 28.7733 0.430002 30.2112C0.118699 31.6492 -0.029541 33.1909 -0.029541 34.8363C-0.029541 36.4818 0.148347 38.0383 0.489298 39.5652C0.830249 41.1069 1.43803 42.6041 2.29782 44.0865C2.74254 44.8129 3.23173 45.4355 3.78022 45.9395C4.31388 46.4435 4.95131 46.8437 5.66286 47.1402C6.37441 47.4367 7.20455 47.6442 8.12364 47.7925C9.05755 47.9259 10.1249 48 11.3404 48H17.9223C18.4263 48 18.9007 47.7332 19.1675 47.3033L22.2805 42.2483H14.2163H14.2459Z" fill="white"/>
<path d="M38.8684 37.6381C40.588 37.6381 41.7887 37.7418 42.5151 38.1865C43.2266 38.6313 43.5676 39.2242 43.5231 39.9654C43.5231 40.3657 43.3897 40.7807 43.1229 41.2255C42.856 41.6702 42.4854 41.9518 41.9814 42.0704C41.4626 42.2038 40.6769 42.2631 39.6244 42.2631H32.1087V37.6529H38.8832L38.8684 37.6381ZM41.9962 47.9852C43.7455 47.9852 45.1389 47.8369 46.1766 47.5405C47.2143 47.2588 48.1185 46.5176 48.8894 45.3465C49.6602 44.131 50.0457 42.8413 50.0457 41.4775C50.0012 39.6541 49.5416 38.1865 48.6522 37.0896C47.7776 35.9778 46.7103 35.2514 45.465 34.8808C47.3773 34.273 48.6077 32.4052 48.9635 30.7597C49.0524 30.2854 49.1266 29.8703 49.1859 29.5145C49.2303 29.1587 49.26 28.8474 49.26 28.5806C49.26 27.7208 49.1414 26.861 48.9042 26.0309C48.667 25.2007 48.1927 24.3706 47.4959 23.5553C47.155 23.1402 46.7992 22.7993 46.399 22.5324C45.9987 22.2804 45.5392 22.0729 45.0352 21.9247C44.5163 21.7764 43.9234 21.6875 43.2563 21.643C42.5892 21.5985 42.4706 21.5689 41.6405 21.5689H25.5713V48H41.9962V47.9852ZM42.7226 29.6183C42.7226 30.3891 42.3817 30.9524 41.6998 31.323C41.0179 31.6936 39.9357 31.8715 38.483 31.8715H36.4521C35.9481 31.8715 35.4885 32.1384 35.2217 32.5534L32.0938 37.6232V27.2909H38.6608C40.1581 27.2909 41.2254 27.4392 41.8628 27.8987C42.4854 28.3434 42.7819 28.9216 42.7374 29.6183H42.7226Z" fill="white"/>
</g>
<defs>
<linearGradient id="paint0_linear_175_13783" x1="53.2772" y1="21.5689" x2="68.9462" y2="21.5689" gradientUnits="userSpaceOnUse">
<stop stop-color="#007BC1"/>
<stop offset="0.4" stop-color="#2D6CB5"/>
<stop offset="1" stop-color="#004789"/>
</linearGradient>
<linearGradient id="paint1_linear_175_13783" x1="71.8665" y1="11.2366" x2="78.9968" y2="25.2452" gradientUnits="userSpaceOnUse">
<stop stop-color="#007BC1"/>
<stop offset="0.4" stop-color="#2D6CB5"/>
<stop offset="1" stop-color="#005198"/>
</linearGradient>
<linearGradient id="paint2_linear_175_13783" x1="84.8079" y1="30.3743" x2="69.213" y2="30.3743" gradientUnits="userSpaceOnUse">
<stop stop-color="#007BC1"/>
<stop offset="0.4" stop-color="#2D6CB5"/>
<stop offset="1" stop-color="#004789"/>
</linearGradient>
<radialGradient id="paint3_radial_175_13783" cx="0" cy="0" r="1" gradientUnits="userSpaceOnUse" gradientTransform="translate(77.0007 0.00533697) scale(26.6725)">
<stop stop-color="#FFCF01"/>
<stop offset="0.7" stop-color="#FBAD18"/>
<stop offset="1" stop-color="#F7941D"/>
</radialGradient>
<clipPath id="clip0_175_13783">
<rect width="84.9413" height="48" fill="white"/>
</clipPath>
</defs>
</svg>
