<svg width="24" height="24" viewBox="0 0 24 24" fill="none" xmlns="http://www.w3.org/2000/svg">
<path d="M12 21C16.9706 21 21 16.9706 21 12C21 7.02944 16.9706 3 12 3C7.02944 3 3 7.02944 3 12C3 16.9706 7.02944 21 12 21Z" stroke="#015AAB" stroke-linecap="round" stroke-linejoin="round"/>
<path d="M12 17.8125C12.5178 17.8125 12.9375 17.3928 12.9375 16.875C12.9375 16.3572 12.5178 15.9375 12 15.9375C11.4822 15.9375 11.0625 16.3572 11.0625 16.875C11.0625 17.3928 11.4822 17.8125 12 17.8125Z" fill="#015AAB"/>
<path d="M12 13.5004V12.7504C12.5192 12.7504 13.0267 12.5964 13.4584 12.308C13.8901 12.0195 14.2265 11.6096 14.4252 11.1299C14.6239 10.6503 14.6758 10.1225 14.5746 9.61326C14.4733 9.10406 14.2233 8.63633 13.8562 8.26921C13.489 7.9021 13.0213 7.65209 12.5121 7.55081C12.0029 7.44952 11.4751 7.5015 10.9955 7.70018C10.5158 7.89886 10.1058 8.23532 9.81739 8.667C9.52895 9.09867 9.375 9.60619 9.375 10.1254" stroke="#015AAB" stroke-linecap="round" stroke-linejoin="round"/>
</svg>
