<svg width="25" height="24" viewBox="0 0 25 24" fill="none" xmlns="http://www.w3.org/2000/svg">
<path d="M20.9733 16.4935C20.4155 15.536 19.7505 13.7189 19.7505 10.5V9.83478C19.7505 5.68305 16.4114 2.28058 12.3072 2.25019C12.288 2.25009 12.269 2.25 12.2499 2.25C10.2609 2.25013 8.35335 3.04036 6.94694 4.44688C5.54054 5.85339 4.75044 7.76097 4.75046 9.75V10.5C4.75046 13.7185 4.08515 15.5357 3.52704 16.4931C3.39383 16.721 3.32311 16.98 3.32203 17.244C3.32096 17.5079 3.38956 17.7675 3.52091 17.9965C3.65227 18.2254 3.84172 18.4157 4.07013 18.548C4.29854 18.6803 4.55782 18.75 4.82178 18.75H19.6784C19.9423 18.75 20.2016 18.6803 20.43 18.548C20.6584 18.4158 20.8478 18.2256 20.9792 17.9967C21.1105 17.7677 21.1792 17.5082 21.1782 17.2443C21.1771 16.9804 21.1065 16.7214 20.9733 16.4935H20.9733Z" stroke="#015AAB"/>
<path d="M15.2434 20.25H9.24341C9.0445 20.25 8.85373 20.329 8.71308 20.4697C8.57243 20.6103 8.49341 20.8011 8.49341 21C8.49341 21.1989 8.57243 21.3897 8.71308 21.5303C8.85373 21.671 9.0445 21.75 9.24341 21.75H15.2434C15.4423 21.75 15.6331 21.671 15.7737 21.5303C15.9144 21.3897 15.9934 21.1989 15.9934 21C15.9934 20.8011 15.9144 20.6103 15.7737 20.4697C15.6331 20.329 15.4423 20.25 15.2434 20.25Z" stroke="#015AAB"/>
</svg>
