<svg width="25" height="24" viewBox="0 0 25 24" fill="none" xmlns="http://www.w3.org/2000/svg">
<path d="M21.8865 12H18.8865C18.4887 12 18.1071 12.158 17.8258 12.4393C17.5445 12.7207 17.3865 13.1022 17.3865 13.5V17.25C17.3865 17.6478 17.5445 18.0294 17.8258 18.3107C18.1071 18.592 18.4887 18.75 18.8865 18.75H20.3865C20.7843 18.75 21.1658 18.592 21.4471 18.3107C21.7284 18.0294 21.8865 17.6478 21.8865 17.25V12ZM21.8865 12C21.8865 10.8124 21.6514 9.63647 21.1949 8.5401C20.7383 7.44373 20.0692 6.44856 19.2263 5.61196C18.3833 4.77536 17.3831 4.11388 16.2833 3.66564C15.1835 3.21739 14.0058 2.99125 12.8182 3.00026C11.6306 2.99125 10.453 3.21739 9.35319 3.66564C8.25339 4.11388 7.25318 4.77536 6.41021 5.61196C5.56725 6.44856 4.8982 7.44373 4.44163 8.5401C3.98506 9.63647 3.75 10.8124 3.75 12V17.25C3.75 17.6478 3.90804 18.0294 4.18934 18.3107C4.47064 18.592 4.85218 18.75 5.25 18.75H6.75C7.14782 18.75 7.52936 18.592 7.81066 18.3107C8.09196 18.0294 8.25 17.6478 8.25 17.25V13.5C8.25 13.1022 8.09196 12.7207 7.81066 12.4393C7.52936 12.158 7.14782 12 6.75 12H3.75" stroke="#015AAB" stroke-linecap="round" stroke-linejoin="round"/>
<path d="M21.8865 17.25V19.5C21.8865 20.2956 21.5704 21.0587 21.0078 21.6213C20.4452 22.1839 19.6821 22.5 18.8865 22.5H13.5" stroke="#015AAB" stroke-linecap="round" stroke-linejoin="round"/>
</svg>
