<svg width="25" height="24" viewBox="0 0 25 24" fill="none" xmlns="http://www.w3.org/2000/svg">
<path opacity="0.2" d="M5 8.75H20C20.1381 8.75 20.25 8.86193 20.25 9V19.5C20.25 19.6381 20.1381 19.75 20 19.75H5C4.86193 19.75 4.75 19.6381 4.75 19.5V9C4.75 8.86193 4.86193 8.75 5 8.75Z" fill="#FAFAFA" stroke="#FDA601"/>
<path d="M20 8.25H5C4.58579 8.25 4.25 8.58579 4.25 9V19.5C4.25 19.9142 4.58579 20.25 5 20.25H20C20.4142 20.25 20.75 19.9142 20.75 19.5V9C20.75 8.58579 20.4142 8.25 20 8.25Z" stroke="#FDA601" stroke-linecap="round" stroke-linejoin="round"/>
<path d="M9.125 8.25V4.875C9.125 3.97989 9.48058 3.12145 10.1135 2.48851C10.7465 1.85558 11.6049 1.5 12.5 1.5C13.3951 1.5 14.2535 1.85558 14.8865 2.48851C15.5194 3.12145 15.875 3.97989 15.875 4.875V8.25" stroke="#FDA601" stroke-linecap="round" stroke-linejoin="round"/>
<path d="M13.125 14.25C13.125 14.5952 12.8452 14.875 12.5 14.875C12.1548 14.875 11.875 14.5952 11.875 14.25C11.875 13.9048 12.1548 13.625 12.5 13.625C12.8452 13.625 13.125 13.9048 13.125 14.25Z" fill="#FAFAFA" stroke="#FDA601"/>
</svg>
