<svg width="25" height="24" viewBox="0 0 25 24" fill="none" xmlns="http://www.w3.org/2000/svg">
<path d="M22.25 6H2.75C2.33579 6 2 6.33579 2 6.75V17.25C2 17.6642 2.33579 18 2.75 18H22.25C22.6642 18 23 17.6642 23 17.25V6.75C23 6.33579 22.6642 6 22.25 6Z" stroke="#FAFAFA" stroke-width="1.5" stroke-linecap="round" stroke-linejoin="round"/>
<path d="M12.5 15C14.1569 15 15.5 13.6569 15.5 12C15.5 10.3431 14.1569 9 12.5 9C10.8431 9 9.5 10.3431 9.5 12C9.5 13.6569 10.8431 15 12.5 15Z" stroke="#FAFAFA" stroke-width="1.5" stroke-linecap="round" stroke-linejoin="round"/>
<path d="M17 6L23 11.25" stroke="#FAFAFA" stroke-width="1.5" stroke-linecap="round" stroke-linejoin="round"/>
<path d="M17 18L23 12.75" stroke="#FAFAFA" stroke-width="1.5" stroke-linecap="round" stroke-linejoin="round"/>
<path d="M8 6L2 11.25" stroke="#FAFAFA" stroke-width="1.5" stroke-linecap="round" stroke-linejoin="round"/>
<path d="M8 18L2 12.75" stroke="#FAFAFA" stroke-width="1.5" stroke-linecap="round" stroke-linejoin="round"/>
</svg>
