<svg width="25" height="24" viewBox="0 0 25 24" fill="none" xmlns="http://www.w3.org/2000/svg">
<path d="M5.76855 9.75C5.76731 8.86051 5.94213 7.97957 6.28294 7.15796C6.62375 6.33635 7.12381 5.59031 7.75429 4.96286C8.38476 4.33541 9.1332 3.83895 9.95644 3.5021C10.7797 3.16525 11.6615 2.99467 12.5509 3.00019C16.2625 3.02778 19.2312 6.11282 19.2312 9.83474V10.5C19.2312 13.8577 19.9337 15.8062 20.5524 16.8711C20.6191 16.9849 20.6546 17.1142 20.6553 17.2461C20.656 17.378 20.6219 17.5077 20.5565 17.6222C20.491 17.7367 20.3966 17.8319 20.2826 17.8982C20.1686 17.9646 20.0392 17.9997 19.9073 18H5.09173C4.95985 17.9997 4.83038 17.9645 4.7164 17.8982C4.60242 17.8318 4.50795 17.7366 4.44252 17.6221C4.3771 17.5076 4.34303 17.3778 4.34376 17.2459C4.34449 17.1141 4.37999 16.9847 4.44667 16.8709C5.06573 15.806 5.76855 13.8575 5.76855 10.5L5.76855 9.75Z" stroke="#FDA601" stroke-linecap="round" stroke-linejoin="round"/>
<path d="M9.5 18V18.75C9.5 19.5456 9.81607 20.3087 10.3787 20.8713C10.9413 21.4339 11.7044 21.75 12.5 21.75C13.2956 21.75 14.0587 21.4339 14.6213 20.8713C15.1839 20.3087 15.5 19.5456 15.5 18.75V18" stroke="#FDA601" stroke-linecap="round" stroke-linejoin="round"/>
</svg>
