<svg width="16" height="16" viewBox="0 0 16 16" fill="none" xmlns="http://www.w3.org/2000/svg">
<path d="M5.46035 14.8351L1.16504 10.5398" stroke="black" stroke-linecap="round" stroke-linejoin="round"/>
<path d="M5.24112 14.875H1.75C1.58424 14.875 1.42527 14.8092 1.30806 14.692C1.19085 14.5748 1.125 14.4158 1.125 14.25V10.7589C1.125 10.6768 1.14117 10.5956 1.17258 10.5197C1.20398 10.4439 1.25002 10.375 1.30806 10.317L10.6831 0.941969C10.8003 0.824759 10.9592 0.758911 11.125 0.758911C11.2908 0.758911 11.4497 0.824759 11.5669 0.941969L15.0581 4.43309C15.1753 4.5503 15.2411 4.70927 15.2411 4.87503C15.2411 5.04079 15.1753 5.19976 15.0581 5.31697L5.68306 14.692C5.62502 14.75 5.55612 14.796 5.48029 14.8275C5.40447 14.8589 5.32319 14.875 5.24112 14.875Z" stroke="black" stroke-linecap="round" stroke-linejoin="round"/>
<path d="M8.625 3L13 7.375" stroke="black" stroke-linecap="round" stroke-linejoin="round"/>
</svg>
