<svg width="25" height="24" viewBox="0 0 25 24" fill="none" xmlns="http://www.w3.org/2000/svg">
<path d="M12.501 1.75H12.5C10.4727 1.75 8.49101 2.35115 6.80541 3.47744C5.11981 4.60372 3.80604 6.20455 3.03024 8.07749C2.25444 9.95044 2.05146 12.0114 2.44696 13.9997C2.84245 15.988 3.81867 17.8144 5.25216 19.2478C6.68565 20.6813 8.51202 21.6576 10.5003 22.053C12.4886 22.4485 14.5496 22.2456 16.4225 21.4698C18.2955 20.694 19.8963 19.3802 21.0226 17.6946C22.1489 16.009 22.75 14.0273 22.75 12V11.999C22.7448 9.28243 21.6633 6.67857 19.7424 4.75763C17.8214 2.83669 15.2176 1.75521 12.501 1.75ZM13.1389 12.9281L12.75 13.0168V13.4156V13.5C12.75 13.5663 12.7237 13.6299 12.6768 13.6768C12.6299 13.7237 12.5663 13.75 12.5 13.75C12.4337 13.75 12.3701 13.7237 12.3232 13.6768C12.2763 13.6299 12.25 13.5663 12.25 13.5V12.75C12.25 12.6837 12.2763 12.6201 12.3232 12.5732C12.3701 12.5263 12.4337 12.5 12.5 12.5C12.9697 12.5 13.4289 12.3607 13.8195 12.0997C14.2101 11.8388 14.5145 11.4678 14.6942 11.0339C14.874 10.5999 14.921 10.1224 14.8294 9.66166C14.7377 9.20096 14.5115 8.77777 14.1794 8.44562C13.8472 8.11347 13.424 7.88727 12.9633 7.79563C12.5026 7.704 12.0251 7.75103 11.5911 7.93079C11.1572 8.11054 10.7862 8.41495 10.5253 8.80552L10.941 9.08331L10.5253 8.80552C10.2643 9.19609 10.125 9.65527 10.125 10.125C10.125 10.1913 10.0987 10.2549 10.0518 10.3018C10.0049 10.3487 9.94131 10.375 9.875 10.375C9.8087 10.375 9.74511 10.3487 9.69823 10.3018C9.65134 10.2549 9.625 10.1913 9.625 10.125C9.62501 9.58379 9.77777 9.05357 10.0657 8.59532C10.3537 8.13707 10.7652 7.76941 11.2528 7.53463C11.7404 7.29984 12.2844 7.20747 12.8222 7.26813C13.36 7.32879 13.8698 7.54002 14.2929 7.87753C14.716 8.21503 15.0352 8.66511 15.2139 9.17598C15.3925 9.68686 15.4233 10.2378 15.3028 10.7654C15.1822 11.293 14.9152 11.7759 14.5324 12.1585C14.1496 12.5411 13.6666 12.8079 13.1389 12.9281ZM12.5 17.5C12.3764 17.5 12.2556 17.4633 12.1528 17.3947C12.05 17.326 11.9699 17.2284 11.9226 17.1142C11.8753 17 11.8629 16.8743 11.887 16.7531C11.9111 16.6318 11.9707 16.5205 12.0581 16.4331C12.1455 16.3456 12.2568 16.2861 12.3781 16.262C12.4993 16.2379 12.625 16.2503 12.7392 16.2976C12.8534 16.3449 12.951 16.425 13.0197 16.5278C13.0883 16.6305 13.125 16.7514 13.125 16.875C13.125 17.0408 13.0592 17.1997 12.9419 17.3169C12.8247 17.4342 12.6658 17.5 12.5 17.5Z" stroke="#015AAB"/>
</svg>
