<svg width="48" height="48" viewBox="0 0 48 48" fill="none" xmlns="http://www.w3.org/2000/svg">
<rect width="48" height="48" rx="24" fill="#FDA601"/>
<path d="M19.4844 21.3484H14.9844V16.8484" stroke="#FAFAFA" stroke-width="1.5" stroke-linecap="round" stroke-linejoin="round"/>
<path d="M29.8336 18.1664C29.0675 17.4003 28.1581 16.7926 27.1571 16.378C26.1562 15.9634 25.0834 15.75 24 15.75C22.9166 15.75 21.8438 15.9634 20.8428 16.378C19.8419 16.7926 18.9324 17.4003 18.1664 18.1664L14.9844 21.3484" stroke="#FAFAFA" stroke-width="1.5" stroke-linecap="round" stroke-linejoin="round"/>
<path d="M28.5156 26.6516H33.0156V31.1516" stroke="#FAFAFA" stroke-width="1.5" stroke-linecap="round" stroke-linejoin="round"/>
<path d="M18.1665 29.8336C18.9326 30.5997 19.8421 31.2074 20.843 31.622C21.8439 32.0366 22.9167 32.25 24.0001 32.25C25.0835 32.25 26.1563 32.0366 27.1573 31.622C28.1582 31.2074 29.0677 30.5997 29.8338 29.8336L33.0157 26.6516" stroke="#FAFAFA" stroke-width="2" stroke-linecap="round" stroke-linejoin="round"/>
</svg>
