<svg width="48" height="48" viewBox="0 0 48 48" fill="none" xmlns="http://www.w3.org/2000/svg">
<rect width="48" height="48" rx="24" fill="#FDA601"/>
<mask id="path-2-inside-1_175_15833" fill="white">
<path d="M30 31.5H15.75V20.25C15.75 20.0511 15.671 19.8603 15.5303 19.7197C15.3897 19.579 15.1989 19.5 15 19.5C14.8011 19.5 14.6103 19.579 14.4697 19.7197C14.329 19.8603 14.25 20.0511 14.25 20.25V31.5C14.2505 31.8977 14.4086 32.279 14.6898 32.5602C14.971 32.8414 15.3523 32.9995 15.75 33H30C30.1989 33 30.3897 32.921 30.5303 32.7803C30.671 32.6397 30.75 32.4489 30.75 32.25C30.75 32.0511 30.671 31.8603 30.5303 31.7197C30.3897 31.579 30.1989 31.5 30 31.5Z"/>
</mask>
<path d="M15.75 31.5H14.25V33H15.75V31.5ZM14.25 20.25H12.75H14.25ZM14.25 31.5H12.75L12.75 31.5017L14.25 31.5ZM15.75 33L15.7483 34.5H15.75V33ZM30 30H15.75V33H30V30ZM17.25 31.5V20.25H14.25V31.5H17.25ZM17.25 20.25C17.25 19.6533 17.0129 19.081 16.591 18.659L14.4697 20.7803C14.329 20.6397 14.25 20.4489 14.25 20.25H17.25ZM16.591 18.659C16.169 18.2371 15.5967 18 15 18V21C14.8011 21 14.6103 20.921 14.4697 20.7803L16.591 18.659ZM15 18C14.4033 18 13.831 18.2371 13.409 18.659L15.5303 20.7803C15.3897 20.921 15.1989 21 15 21V18ZM13.409 18.659C12.9871 19.081 12.75 19.6533 12.75 20.25H15.75C15.75 20.4489 15.671 20.6397 15.5303 20.7803L13.409 18.659ZM12.75 20.25V31.5H15.75V20.25H12.75ZM12.75 31.5017C12.7509 32.2966 13.0671 33.0587 13.6292 33.6208L15.7505 31.4995C15.7502 31.4992 15.75 31.4987 15.75 31.4983L12.75 31.5017ZM13.6292 33.6208C14.1913 34.1829 14.9534 34.4991 15.7483 34.5L15.7517 31.5C15.7513 31.5 15.7508 31.4998 15.7505 31.4995L13.6292 33.6208ZM15.75 34.5H30V31.5H15.75V34.5ZM30 34.5C30.5967 34.5 31.169 34.263 31.591 33.841L29.4697 31.7197C29.6103 31.579 29.8011 31.5 30 31.5V34.5ZM31.591 33.841C32.013 33.419 32.25 32.8467 32.25 32.25H29.25C29.25 32.0511 29.329 31.8603 29.4697 31.7197L31.591 33.841ZM32.25 32.25C32.25 31.6533 32.013 31.081 31.591 30.659L29.4697 32.7803C29.329 32.6397 29.25 32.4489 29.25 32.25H32.25ZM31.591 30.659C31.169 30.237 30.5967 30 30 30V33C29.8011 33 29.6103 32.921 29.4697 32.7803L31.591 30.659Z" fill="#FAFAFA" mask="url(#path-2-inside-1_175_15833)"/>
<path d="M33.5531 22.1568L33.5532 22.1566C33.5563 22.1524 33.5588 22.1491 33.5611 22.1462C33.565 22.141 33.568 22.137 33.5713 22.1321L33.5713 22.1321C33.5765 22.1244 33.581 22.1168 33.5865 22.1073C33.5881 22.1046 33.5897 22.1018 33.5915 22.0988L33.5915 22.0988C33.5943 22.094 33.5965 22.0904 33.5984 22.0873C33.6013 22.0827 33.6034 22.0792 33.6059 22.0745L33.6059 22.0745C33.6102 22.0665 33.6138 22.0587 33.6183 22.049C33.6195 22.0464 33.6208 22.0436 33.6221 22.0407L33.6222 22.0406C33.6243 22.0361 33.6261 22.0324 33.6276 22.0291C33.6304 22.0233 33.6326 22.0188 33.6349 22.0133L33.6926 22.0374M33.5531 22.1568L33.6787 21.8544C33.6771 21.8658 33.6758 21.8752 33.6739 21.8848C33.6727 21.8912 33.6713 21.8965 33.6695 21.9035C33.6685 21.9072 33.6674 21.9114 33.6661 21.9165C33.6651 21.9207 33.6642 21.9244 33.6633 21.9279C33.6613 21.9362 33.6597 21.9428 33.6576 21.95C33.6557 21.9562 33.6537 21.9616 33.6512 21.9685C33.6499 21.972 33.6485 21.9758 33.6469 21.9804L33.6468 21.9805C33.6457 21.9838 33.6446 21.9869 33.6436 21.9897C33.6404 21.9988 33.6379 22.0061 33.6348 22.0137L33.6926 22.0374M33.5531 22.1568C33.5503 22.1606 33.5479 22.1639 33.5456 22.167C33.5404 22.1743 33.5362 22.1801 33.5312 22.1862M33.5531 22.1568L33.5312 22.1862M33.6926 22.0374C33.6964 22.0282 33.6997 22.0188 33.703 22.0093C33.7039 22.0067 33.7048 22.004 33.7057 22.0014M33.6926 22.0374C33.6897 22.0444 33.6864 22.0511 33.6832 22.0579C33.6817 22.061 33.6802 22.064 33.6788 22.0671C33.6776 22.0695 33.6765 22.072 33.6754 22.0744C33.6708 22.0844 33.6662 22.0943 33.661 22.104C33.6577 22.1101 33.6542 22.1159 33.6506 22.1218C33.6488 22.1247 33.6471 22.1276 33.6453 22.1305C33.6439 22.133 33.6424 22.1355 33.641 22.138C33.6353 22.1477 33.6296 22.1575 33.6232 22.1669C33.6189 22.1733 33.6142 22.1795 33.6096 22.1856C33.6075 22.1884 33.6055 22.1911 33.6034 22.1938C33.6014 22.1966 33.5993 22.1994 33.5973 22.2022C33.5916 22.2102 33.5858 22.2182 33.5795 22.2259M33.7057 22.0014L33.5312 22.1862L33.5795 22.2259M33.7057 22.0014C33.7069 21.9981 33.7081 21.9949 33.7092 21.9917C33.7121 21.9839 33.715 21.9761 33.7174 21.9681C33.7201 21.9591 33.7223 21.9501 33.7245 21.941C33.7252 21.9379 33.726 21.9347 33.7268 21.9315C33.7297 21.92 33.7329 21.9086 33.7352 21.8969C33.7375 21.8853 33.7391 21.8737 33.7407 21.862C33.7411 21.8593 33.7414 21.8567 33.7418 21.854C33.7423 21.8503 33.7429 21.8467 33.7435 21.843C33.7445 21.8368 33.7455 21.8306 33.7461 21.8243C33.751 21.7749 33.751 21.7252 33.7461 21.6758C33.7455 21.6695 33.7445 21.6633 33.7435 21.657C33.7429 21.6534 33.7423 21.6498 33.7418 21.6461M33.7057 22.0014L33.4859 21.2638L33.486 21.2639M33.5795 22.2259L33.5312 22.1862M33.5795 22.2259L33.5312 22.1862M33.5312 22.1862C33.5224 22.1969 33.5128 22.2071 33.5013 22.2192L33.4996 22.2211L33.4995 22.2212C33.4981 22.2226 33.4968 22.224 33.4956 22.2254C33.4936 22.2277 33.4918 22.2297 33.4906 22.2312L33.486 22.2362L33.4859 22.2363L28.986 26.7362C28.8571 26.8652 28.6822 26.9376 28.4998 26.9376C28.3175 26.9376 28.1426 26.8652 28.0137 26.7362C27.8847 26.6073 27.8123 26.4324 27.8123 26.2501C27.8123 26.0677 27.8847 25.8928 28.0137 25.7639L31.2334 22.5443L31.3401 22.4376H31.1892H27.7499H27.7498V22.5001C25.9203 22.4987 24.1423 23.1059 22.6958 24.2259C21.2492 25.346 20.2163 26.9154 19.7597 28.687C19.7352 28.7825 19.6921 28.8722 19.633 28.951C19.5738 29.0298 19.4997 29.0962 19.4149 29.1464C19.33 29.1965 19.2362 29.2295 19.1386 29.2433C19.041 29.2572 18.9417 29.2517 18.8462 29.2271C18.7508 29.2025 18.6611 29.1594 18.5823 29.1002C18.5036 29.0409 18.4373 28.9667 18.3872 28.8819C18.3371 28.797 18.3043 28.703 18.2905 28.6055C18.2768 28.5079 18.2824 28.4085 18.3071 28.3131C18.8466 26.2192 20.0672 24.3643 21.7767 23.0403L33.5312 22.1862ZM33.7418 21.6461C33.7414 21.6434 33.7411 21.6407 33.7407 21.638C33.7391 21.6264 33.7375 21.6148 33.7352 21.6032M33.7418 21.6461L33.6799 21.6547M33.7418 21.6461L33.6799 21.6547L33.6799 21.6547M33.7352 21.6032C33.7329 21.5915 33.7297 21.5801 33.7268 21.5686C33.726 21.5654 33.7252 21.5622 33.7245 21.5591C33.7223 21.55 33.7201 21.541 33.7174 21.532M33.7352 21.6032L33.674 21.6154L33.6739 21.6153L33.7352 21.6032ZM33.7174 21.532C33.715 21.524 33.7121 21.5162 33.7093 21.5084C33.7081 21.5052 33.7069 21.502 33.7057 21.4987C33.7048 21.496 33.7038 21.4933 33.7029 21.4906C33.6996 21.4813 33.6964 21.4719 33.6926 21.4627M33.7174 21.532L33.6576 21.5501C33.6576 21.5502 33.6576 21.5502 33.6576 21.5502M33.7174 21.532L33.6576 21.5502M33.6926 21.4627C33.6884 21.4526 33.6834 21.4429 33.6788 21.433C33.6776 21.4306 33.6765 21.4281 33.6754 21.4257C33.6708 21.4157 33.6662 21.4058 33.661 21.3961C33.6561 21.387 33.6505 21.3784 33.6453 21.3696C33.6439 21.3671 33.6424 21.3646 33.641 21.3621C33.6353 21.3524 33.6296 21.3426 33.6232 21.3332C33.6189 21.3268 33.6142 21.3206 33.6096 21.3145C33.6075 21.3118 33.6055 21.309 33.6034 21.3063C33.6014 21.3035 33.5993 21.3007 33.5973 21.2979C33.5916 21.2899 33.5858 21.2819 33.5795 21.2743C33.5693 21.2619 33.5584 21.2503 33.5474 21.2386L33.5451 21.2362C33.5429 21.2338 33.5408 21.2315 33.5388 21.2291C33.536 21.2259 33.5332 21.2227 33.5302 21.2197L33.486 21.2639M33.6926 21.4627L33.6349 21.4868C33.6326 21.4813 33.6304 21.4768 33.6276 21.4709C33.626 21.4677 33.6243 21.464 33.6222 21.4595L33.6221 21.4594C33.6208 21.4565 33.6195 21.4537 33.6183 21.4511C33.6138 21.4414 33.6102 21.4336 33.6059 21.4256L33.6059 21.4256C33.6034 21.4209 33.6012 21.4174 33.5984 21.4127C33.5965 21.4097 33.5943 21.4061 33.5915 21.4014L33.5915 21.4013C33.5897 21.3983 33.5881 21.3955 33.5865 21.3928C33.581 21.3833 33.5765 21.3757 33.5713 21.368L33.5713 21.368C33.568 21.3631 33.565 21.3591 33.5611 21.3539C33.5588 21.351 33.5563 21.3477 33.5532 21.3435L33.5531 21.3433C33.5503 21.3395 33.5479 21.3362 33.5456 21.3331C33.5404 21.3258 33.5362 21.32 33.5312 21.3139C33.522 21.3027 33.5118 21.292 33.4996 21.279L33.4995 21.2789C33.4959 21.2751 33.4926 21.2712 33.4906 21.269L33.486 21.2639M33.6926 21.4627L33.6348 21.4865C33.6389 21.4964 33.642 21.5059 33.6468 21.5196L33.6469 21.5197C33.6485 21.5243 33.6499 21.5282 33.6512 21.5317L33.486 21.2639M33.6576 21.5502C33.6597 21.5573 33.6613 21.5639 33.6633 21.5722C33.6642 21.5757 33.6651 21.5794 33.6661 21.5836C33.6674 21.5887 33.6685 21.5929 33.6695 21.5966L33.6576 21.5502ZM33.6799 21.6547C33.6808 21.6616 33.6816 21.666 33.6822 21.6695C33.6829 21.6738 33.6834 21.6769 33.6839 21.6819L33.6839 21.682C33.6884 21.7272 33.6884 21.7729 33.6839 21.8181L33.6839 21.8182C33.6834 21.8232 33.6829 21.8263 33.6822 21.8306C33.6816 21.8341 33.6809 21.8385 33.6799 21.8454V21.6547Z" fill="#FAFAFA" stroke="#FAFAFA" stroke-width="0.125"/>
</svg>
