<svg width="20" height="20" viewBox="0 0 20 20" fill="none" xmlns="http://www.w3.org/2000/svg">
<mask id="path-1-inside-1_175_14595" fill="white">
<path d="M17.5005 3.75H2.50049C2.41841 3.75 2.33714 3.76616 2.26131 3.79757C2.18548 3.82898 2.11658 3.87502 2.05854 3.93305C2.0005 3.99109 1.95447 4.05999 1.92306 4.13582C1.89165 4.21165 1.87549 4.29292 1.87549 4.375V15C1.87587 15.3314 2.00769 15.6491 2.24202 15.8835C2.47636 16.1178 2.79408 16.2496 3.12549 16.25H16.8755C17.2069 16.2496 17.5246 16.1178 17.759 15.8835C17.9933 15.6491 18.1251 15.3314 18.1255 15V4.375C18.1255 4.29292 18.1093 4.21165 18.0779 4.13582C18.0465 4.05999 18.0005 3.99109 17.9424 3.93305C17.8844 3.87502 17.8155 3.82898 17.7397 3.79757C17.6638 3.76616 17.5826 3.75 17.5005 3.75ZM3.12549 8.75H6.25049V11.25H3.12549V8.75ZM7.50049 8.75H16.8758L16.876 11.25H7.50049V8.75ZM3.12549 12.5H6.25049V15H3.12549V12.5ZM16.8755 15H7.50049V12.5H16.8761L16.8763 15L16.8755 15Z"/>
</mask>
<path d="M2.50049 3.75L2.50045 5.25H2.50049V3.75ZM1.87549 4.375H3.37549V4.37496L1.87549 4.375ZM1.87549 15H0.375487L0.375489 15.0017L1.87549 15ZM3.12549 16.25L3.12377 17.75H3.12549V16.25ZM16.8755 16.25V17.75L16.8772 17.75L16.8755 16.25ZM18.1255 15L19.6255 15.0017V15H18.1255ZM18.1255 4.375L16.6255 4.37496V4.375H18.1255ZM3.12549 8.75V7.25H1.62549V8.75H3.12549ZM6.25049 8.75H7.75049V7.25H6.25049V8.75ZM6.25049 11.25V12.75H7.75049V11.25H6.25049ZM3.12549 11.25H1.62549V12.75H3.12549V11.25ZM7.50049 8.75V7.25H6.00049V8.75H7.50049ZM16.8758 8.75L18.3758 8.74989L18.3757 7.25H16.8758V8.75ZM16.876 11.25V12.75H18.3761L18.376 11.2499L16.876 11.25ZM7.50049 11.25H6.00049V12.75H7.50049V11.25ZM3.12549 12.5V11H1.62549V12.5H3.12549ZM6.25049 12.5H7.75049V11H6.25049V12.5ZM6.25049 15V16.5H7.75049V15H6.25049ZM3.12549 15H1.62549V16.5H3.12549V15ZM16.8755 15V16.5H16.9112L16.9468 16.4983L16.8755 15ZM7.50049 15H6.00049V16.5H7.50049V15ZM7.50049 12.5V11H6.00049V12.5H7.50049ZM16.8761 12.5L18.3761 12.4999L18.376 11H16.8761V12.5ZM16.8763 15L16.9476 16.4983L18.3764 16.4302L18.3763 14.9998L16.8763 15ZM17.5005 2.25H2.50049V5.25H17.5005V2.25ZM2.50053 2.25C2.22146 2.24999 1.94513 2.30495 1.6873 2.41174L2.83531 5.1834C2.72915 5.22737 2.61536 5.25 2.50045 5.25L2.50053 2.25ZM1.6873 2.41174C1.42948 2.51853 1.19521 2.67506 0.997881 2.87239L3.1192 4.99371C3.03795 5.07497 2.94148 5.13942 2.83531 5.1834L1.6873 2.41174ZM0.997881 2.87239C0.800552 3.06972 0.644022 3.30399 0.537231 3.56181L3.30889 4.70983C3.26491 4.81599 3.20046 4.91246 3.1192 4.99371L0.997881 2.87239ZM0.537231 3.56181C0.43044 3.81964 0.37548 4.09598 0.375488 4.37504L3.37549 4.37496C3.37549 4.48987 3.35286 4.60366 3.30889 4.70983L0.537231 3.56181ZM0.375488 4.375V15H3.37549V4.375H0.375488ZM0.375489 15.0017C0.376323 15.7304 0.666141 16.4289 1.18136 16.9441L3.30268 14.8228C3.34923 14.8694 3.37541 14.9325 3.37549 14.9983L0.375489 15.0017ZM1.18136 16.9441C1.69659 17.4593 2.39514 17.7492 3.12377 17.75L3.1272 14.75C3.19303 14.7501 3.25614 14.7763 3.30268 14.8228L1.18136 16.9441ZM3.12549 17.75H16.8755V14.75H3.12549V17.75ZM16.8772 17.75C17.6058 17.7492 18.3044 17.4593 18.8196 16.9441L16.6983 14.8228C16.7448 14.7763 16.8079 14.7501 16.8738 14.75L16.8772 17.75ZM18.8196 16.9441C19.3348 16.4289 19.6247 15.7304 19.6255 15.0017L16.6255 14.9983C16.6256 14.9325 16.6517 14.8694 16.6983 14.8228L18.8196 16.9441ZM19.6255 15V4.375H16.6255V15H19.6255ZM19.6255 4.37504C19.6255 4.09598 19.5705 3.81964 19.4637 3.56181L16.6921 4.70983C16.6481 4.60366 16.6255 4.48987 16.6255 4.37496L19.6255 4.37504ZM19.4637 3.56181C19.357 3.30399 19.2004 3.06972 19.0031 2.87239L16.8818 4.99371C16.8005 4.91246 16.7361 4.81599 16.6921 4.70983L19.4637 3.56181ZM19.0031 2.87239C18.8058 2.67507 18.5715 2.51853 18.3137 2.41174L17.1657 5.1834C17.0595 5.13942 16.963 5.07497 16.8818 4.99371L19.0031 2.87239ZM18.3137 2.41174C18.0558 2.30495 17.7795 2.24999 17.5004 2.25L17.5005 5.25C17.3856 5.25 17.2718 5.22737 17.1657 5.1834L18.3137 2.41174ZM3.12549 10.25H6.25049V7.25H3.12549V10.25ZM4.75049 8.75V11.25H7.75049V8.75H4.75049ZM6.25049 9.75H3.12549V12.75H6.25049V9.75ZM4.62549 11.25V8.75H1.62549V11.25H4.62549ZM7.50049 10.25H16.8758V7.25H7.50049V10.25ZM15.3758 8.75011L15.376 11.2501L18.376 11.2499L18.3758 8.74989L15.3758 8.75011ZM16.876 9.75H7.50049V12.75H16.876V9.75ZM9.00049 11.25V8.75H6.00049V11.25H9.00049ZM3.12549 14H6.25049V11H3.12549V14ZM4.75049 12.5V15H7.75049V12.5H4.75049ZM6.25049 13.5H3.12549V16.5H6.25049V13.5ZM4.62549 15V12.5H1.62549V15H4.62549ZM16.8755 13.5H7.50049V16.5H16.8755V13.5ZM9.00049 15V12.5H6.00049V15H9.00049ZM7.50049 14H16.8761V11H7.50049V14ZM15.3761 12.5001L15.3763 15.0001L18.3763 14.9998L18.3761 12.4999L15.3761 12.5001ZM16.8049 13.5017L16.8041 13.5017L16.9468 16.4983L16.9476 16.4983L16.8049 13.5017Z" fill="#FAFAFA" mask="url(#path-1-inside-1_175_14595)"/>
</svg>
