<svg width="25" height="24" viewBox="0 0 25 24" fill="none" xmlns="http://www.w3.org/2000/svg">
<path d="M5 3.75L20 20.25" stroke="#FDA601" stroke-linecap="round" stroke-linejoin="round"/>
<path d="M9.5 20.998H15.5" stroke="#FDA601" stroke-linecap="round" stroke-linejoin="round"/>
<path d="M9.17188 3.87956C10.2004 3.29167 11.3666 2.98753 12.5512 2.99826C16.2627 3.02585 19.2315 6.11088 19.2315 9.83281V10.4981C19.2315 13.0006 19.6217 14.7203 20.0766 15.8748" stroke="#FDA601" stroke-linecap="round" stroke-linejoin="round"/>
<path d="M17.9523 17.998H5.09173C4.95985 17.9977 4.83038 17.9626 4.7164 17.8962C4.60242 17.8299 4.50795 17.7347 4.44252 17.6201C4.3771 17.5056 4.34303 17.3759 4.34376 17.244C4.34449 17.1121 4.37999 16.9827 4.44667 16.869C5.06573 15.804 5.76855 13.8556 5.76855 10.498V9.74804C5.7662 8.37669 6.18274 7.03733 6.96241 5.90918" stroke="#FDA601" stroke-linecap="round" stroke-linejoin="round"/>
</svg>
